<?xml version="1.0" encoding="UTF-8"?><svg id="Lag_3" xmlns="http://www.w3.org/2000/svg" width="72mm" height="52mm" viewBox="0 0 204.09 147.4"><defs><style>.cls-1{font-family:Krungthep, Krungthep;font-size:33px;stroke:#f5a322;stroke-width:2px;}.cls-1,.cls-2{fill:none;}.cls-1,.cls-2,.cls-3{stroke-miterlimit:10;}.cls-2{stroke-width:.5px;}.cls-2,.cls-3{stroke:#1d1d1b;}.cls-3{fill:#1d1d1b;}</style></defs><path class="cls-2" d="M1.59,100.99C1.35,46.46,45.36,2.05,99.89,1.81c54.53-.24,98.94,43.77,99.18,98.31"/><path class="cls-2" d="M5.15,100.99C4.92,48.42,47.34,5.62,99.91,5.39c52.57-.23,95.37,42.19,95.6,94.76"/><path class="cls-2" d="M8.98,100.99c-.22-50.45,40.5-91.53,90.95-91.75,50.45-.22,91.53,40.5,91.75,90.95"/><path class="cls-2" d="M12.58,100.99c-.21-48.46,38.9-87.93,87.37-88.14,48.46-.21,87.93,38.9,88.14,87.37"/><path class="cls-2" d="M16.16,101c-.21-46.48,37.31-84.33,83.79-84.54,46.48-.21,84.33,37.31,84.54,83.79"/><path class="cls-2" d="M19.61,100.99c-.2-44.42,35.65-80.59,80.07-80.78,44.42-.2,80.59,35.65,80.78,80.07"/><path class="cls-2" d="M23.64,100.99c-.19-42.18,33.86-76.52,76.03-76.71,42.18-.19,76.52,33.86,76.71,76.03"/><path class="cls-2" d="M27.72,100.99c-.18-40.04,32.14-72.64,72.18-72.82,40.04-.18,72.64,32.14,72.82,72.18"/><path class="cls-2" d="M31.66,100.99c-.17-37.75,30.3-68.49,68.06-68.66,37.75-.17,68.49,30.3,68.66,68.06"/><path class="cls-2" d="M35.03,100.99c-.16-35.88,28.8-65.1,64.68-65.26,35.88-.16,65.1,28.8,65.26,64.68"/><path class="cls-2" d="M38.43,100.99c-.15-33.85,27.17-61.4,61.01-61.55,33.85-.15,61.4,27.17,61.55,61.01"/><path class="cls-2" d="M42.4,100.99c-.14-31.54,25.32-57.22,56.86-57.36,31.54-.14,57.22,25.32,57.36,56.86"/><path class="cls-2" d="M45.92,100.99c-.13-29.6,23.76-53.7,53.35-53.83,29.6-.13,53.7,23.76,53.83,53.35"/><path class="cls-2" d="M49.44,100.99c-.12-27.69,22.23-50.24,49.92-50.37,27.69-.12,50.24,22.23,50.37,49.92"/><path class="cls-2" d="M52.81,100.99c-.11-25.91,20.8-47.01,46.71-47.12,25.91-.11,47.01,20.8,47.12,46.71"/><path class="cls-2" d="M56.73,100.99c-.11-23.81,19.11-43.2,42.92-43.3,23.81-.11,43.2,19.11,43.3,42.92"/><path class="cls-2" d="M60.42,100.99c-.1-21.77,17.47-39.49,39.24-39.59,21.77-.1,39.49,17.47,39.59,39.24"/><path class="cls-2" d="M64.13,100.99c-.09-19.79,15.88-35.9,35.67-35.99s35.9,15.88,35.99,35.67"/><path class="cls-2" d="M67.6,101.16c-.25-17.89,14.05-32.6,31.94-32.85,17.89-.25,32.6,14.05,32.85,31.94"/><path class="cls-3" d="M94.88,101.16c-.01-3.01,2.42-5.47,5.43-5.48,3.01-.01,5.47,2.42,5.48,5.43"/><text class="cls-1" transform="translate(.59 131.41)"><tspan x="0" y="0">PALMSPREE</tspan></text></svg>